HIERARCHY
ROOT pelvis
{
  OFFSET 0 100 0
  CHANNELS 6 Xposition Yposition Zposition Zrotation Xrotation Yrotation
  JOINT pelvis_right_femur
  {
    OFFSET -10.78128 -3.44521 -0.5502486
    CHANNELS 3 Zrotation Xrotation Yrotation
    JOINT right_femur_tibia
    {
      OFFSET -0.8047443 -44.0398 -0.1307829
      CHANNELS 3 Zrotation Xrotation Yrotation
      JOINT right_tibia_foot
      {
        OFFSET 3.006224 -47.83518 -5
        CHANNELS 3 Zrotation Xrotation Yrotation
        End Site
        {
          OFFSET 0 -5 15
        }
      }
    }
  }
  JOINT pelvis_left_femur
  {
    OFFSET 10.78128 -3.44521 -0.5502486
    CHANNELS 3 Zrotation Xrotation Yrotation
    JOINT left_femur_tibia
    {
      OFFSET 0.8047443 -44.0398 -0.1307829
      CHANNELS 3 Zrotation Xrotation Yrotation
      JOINT left_tibia_foot
      {
        OFFSET -4.370144 -48.10324 -4.275266
        CHANNELS 3 Zrotation Xrotation Yrotation
        End Site
        {
          OFFSET 0 -5 15
        }
      }
    }
  }
  JOINT pelvis_spine1
  {
    OFFSET 0 6.468898 -3.129235
    CHANNELS 3 Zrotation Xrotation Yrotation
    JOINT spine1
    {
      OFFSET 0 23.15396 4.99043
      CHANNELS 3 Zrotation Xrotation Yrotation
      JOINT spine2
      {
        OFFSET 0 20.79997 -5.064912
        CHANNELS 3 Zrotation Xrotation Yrotation
        JOINT neck
        {
          OFFSET 0 14.38658 9.616178
          CHANNELS 3 Zrotation Xrotation Yrotation
          End Site
          {
            OFFSET 0 20 0
          }
        }
      }
      JOINT right_manubrium
      {
        OFFSET -5.722621 16.35077 3.967754
        CHANNELS 3 Zrotation Xrotation Yrotation
        JOINT right_clavicle
        {
          OFFSET -13.16364 1.694482 -4.693211
          CHANNELS 3 Zrotation Xrotation Yrotation
          JOINT right_humerus
          {
            OFFSET -28.5034 -0.3100689 -2.792744
            CHANNELS 3 Zrotation Xrotation Yrotation
            JOINT right_radius
            {
              OFFSET -25.15693 0.02248979 -1.271978
              CHANNELS 3 Zrotation Xrotation Yrotation
              End Site
              {
                OFFSET -15 0 0
              }
            }
          }
        }
      }
      JOINT left_manubrium
      {
        OFFSET 5.722621 16.35077 3.967754
        CHANNELS 3 Zrotation Xrotation Yrotation
        JOINT left_clavicle
        {
          OFFSET 13.16364 1.694482 -4.693211
          CHANNELS 3 Zrotation Xrotation Yrotation
          JOINT left_humerus
          {
            OFFSET 29.39168 -1.063119 -2.237045
            CHANNELS 3 Zrotation Xrotation Yrotation
            JOINT left_radius
            {
              OFFSET 24.59957 -0.9528479 0.9047498
              CHANNELS 3 Zrotation Xrotation Yrotation
              End Site
              {
                OFFSET 15 -0 -0
              }
            }
          }
        }
      }
    }
  }
}
MOTION
Frames: 19
Frame Time: 0.0416666666667
26.76622 101.4719 262.3355 1.0678 -6.589911 0.3928787 2.187187 16.72477 6.57945 -0 22.41216 -0 5.194224 -13.16932 0.06134832 0.5254205 -26.84169 -2.414062 -0 21.00614 -0 -7.608963 -8.760587 18.91377 -0.4029031 2.029592 9.589419 -1.132947 9.414564 -3.069883 1.527878 18.99617 4.566177 2.553772 -16.56476 5.588629 -2.285613 -23.43511 10.92123 81.75215 20.44438 -4.657387 -0 0 27.50843 -23.49041 7.651233 14.53853 3.741133 -14.76232 -2.990286 -91.02412 18.8141 25.19184 0 0 -15.35567 -4.940518 4.965263 20.6401
28.06104 101.0275 270.2573 1.786706 -6.899902 0.4693896 1.171714 17.46606 6.751479 -0 28.42651 -0 5.636551 -10.16097 -0.4326332 -1.197751 -24.44118 -4.306837 -0 22.00302 -0 -7.383142 -7.695027 18.27999 -1.291971 0.963534 9.710378 -1.403993 9.418257 -3.057683 1.84356 19.19061 4.388475 2.624621 -16.57302 5.683504 -2.569231 -22.48384 10.32016 82.5221 19.78095 -5.458608 -0 0 27.71588 -23.7246 7.263179 14.5038 3.688121 -13.84364 -2.974472 -91.09695 19.164 25.7171 0 0 -14.41011 -5.231604 4.952987 21.3648
29.14484 101.2661 277.6461 2.452278 -6.792659 0.7610338 -0.2083143 17.80876 6.604023 -0 35.79163 -0 5.690975 -6.615515 -1.090653 -2.829993 -21.19835 -5.689187 -0 23.43356 -0 -6.943225 -7.94784 18.0056 -2.3673 0.07416804 9.700203 -1.561643 9.248209 -3.025344 2.048153 19.44824 4.270312 2.636664 -16.5468 5.773573 -2.389246 -21.42349 9.984298 83.59814 19.44401 -6.736412 -0 0 26.78942 -23.6601 7.025514 14.12276 3.752008 -13.44892 -3.056124 -90.56423 19.58773 25.41924 0 0 -14.05004 -5.276872 5.040837 21.66312
30.38167 101.8961 285.0629 2.881273 -7.355057 1.905317 -0.5357565 16.01637 6.260649 -0 44.72638 -0 5.412557 -3.806238 -2.006645 -4.611943 -16.60076 -6.60258 -0 23.93696 -0 -6.397835 -9.293685 17.6818 -2.832089 -0.2686924 9.082644 -1.612124 9.37574 -3.194042 2.131823 19.99095 4.223139 2.577255 -16.42715 5.881933 -2.035585 -20.18193 9.808342 84.81265 19.43197 -8.41235 -0 0 24.89785 -23.27677 6.936102 13.44105 3.667296 -13.50885 -3.145953 -89.61017 20.00535 24.36222 0 0 -14.21307 -5.096755 5.199832 21.57402
31.436 103.3025 292.2145 2.72227 -8.981035 2.969429 -0.5324367 10.33992 4.72237 -0 52.05058 -0 6.037323 -4.787819 -4.001309 -5.181349 -10.27449 -6.907263 -0 23.61589 -0 -5.826615 -10.89699 17.32985 -2.741403 0.09956913 8.239449 -1.349529 9.676126 -3.337365 1.982844 20.52825 4.460924 2.39476 -16.41974 6.185453 -1.260092 -19.00874 9.930944 86.04763 19.64286 -10.25273 -0 0 22.34003 -22.59974 6.958799 12.51797 3.440336 -13.89072 -3.345039 -88.29163 20.41544 22.632 0 0 -14.71925 -4.734251 5.419159 21.19376
32.3737 104.5064 297.973 2.792116 -9.271157 3.304722 0.04577098 5.328987 3.598862 -0 55.58718 -0 7.189858 -3.618202 -5.007736 -5.374652 -5.053659 -7.186281 -0 21.89166 -0 -5.513666 -12.2102 16.59196 -2.825852 0.4525325 7.216597 -1.154158 9.513538 -3.605853 1.673056 21.13583 4.860259 2.122005 -16.25444 6.575482 -0.8679007 -18.45421 10.19182 87.16416 19.97432 -11.56323 -0 0 20.23999 -21.83216 6.996189 11.70004 3.491944 -14.62898 -3.806858 -86.88531 20.77164 20.03876 0 0 -15.88333 -4.245564 5.667363 20.58963
33.31131 106.1105 303.9608 2.19884 -9.924817 4.423101 0.08811967 -1.412113 3.092079 -0 56.08445 -0 6.277821 -4.961207 -6.419982 -4.828514 0.6180841 -7.515677 -0 19.71632 -0 -5.481596 -13.09398 15.65989 -2.401956 0.7332505 5.723924 -0.5148312 9.525863 -4.528081 1.487517 21.84662 5.158756 1.905814 -16.07669 6.954497 -0.8014695 -17.66584 9.960747 88.29995 20.20645 -13.25709 -0 0 18.27141 -21.02734 6.966558 10.89481 3.610404 -15.19179 -4.241716 -85.67769 21.0356 17.28198 0 0 -17.33061 -3.72848 5.925291 19.81568
34.24386 106.8903 309.7554 2.072465 -10.02763 5.634838 0.411642 -7.38744 2.861355 -0 52.45218 -0 5.015931 -5.15411 -7.634652 -4.362765 5.309435 -8.148187 -0 17.30579 -0 -5.527877 -14.0524 14.44917 -2.349832 0.7076374 4.378987 0.03324054 9.320656 -5.725835 1.420027 22.35989 5.34742 1.752341 -15.95833 7.28207 -1.290955 -16.87368 9.447605 89.22981 20.30303 -14.93804 -0 0 16.73609 -20.30318 6.813994 10.2194 3.977944 -15.66312 -4.721918 -84.44808 21.28695 14.33584 0 0 -18.98841 -3.182897 6.225108 18.82649
35.13823 106.783 315.2836 2.231238 -9.369496 7.388181 0.4184789 -13.06232 2.71221 -0 45.50935 -0 3.556797 -4.639231 -9.092855 -4.140819 10.0161 -8.193019 -0 14.38392 -0 -5.482418 -15.43198 13.18897 -2.622045 0.4893244 3.110465 0.6089904 8.924413 -7.133782 1.457043 22.55749 5.38486 1.647411 -16.02221 7.496847 -1.957466 -15.82658 8.811808 90.17426 20.26228 -16.75634 -0 0 15.25286 -19.53045 6.544025 9.501716 4.517449 -16.31633 -5.306315 -83.08716 21.55698 11.08905 0 0 -20.92975 -2.604063 6.599149 17.68073
36.02347 106.0511 321.2903 2.381761 -9.075267 8.720157 -0.3155072 -18.35741 2.838237 -0 36.8719 -0 1.993343 -4.319581 -10.70583 -3.913219 14.26592 -8.295058 -0 12.75869 -0 -5.418819 -16.98308 12.20273 -3.060408 0.4941854 2.148986 1.172684 8.784566 -8.339698 1.579263 22.81907 5.221606 1.593936 -16.15789 7.529053 -2.664232 -14.79597 8.274053 90.87219 20.2335 -18.40142 -0 0 13.66622 -18.78797 6.270147 8.70819 5.223543 -16.95601 -5.78981 -81.51383 21.82542 7.955604 0 0 -22.78822 -1.924633 7.058504 16.44498
36.71356 104.7225 326.9452 2.758827 -8.669519 9.621116 -1.508243 -22.03078 2.641302 -0 27.65966 -0 0.07591231 -5.0284 -11.65426 -3.944552 17.63259 -8.249353 -0 12.30508 -0 -5.377128 -18.60746 11.50769 -3.297766 0.3978628 1.736035 1.611658 8.176693 -8.890376 1.465848 22.61886 5.361336 1.394632 -16.72905 7.759905 -2.80752 -13.87577 8.166907 91.39846 20.28454 -19.89681 -0 0 11.65202 -17.95179 6.041812 7.70605 5.527521 -17.81581 -6.319676 -79.79746 21.98864 4.964736 0 0 -24.34085 -1.118118 7.566491 15.23158
37.37964 103.2301 332.591 2.933963 -8.071596 9.606324 -1.5661 -24.45925 1.901857 -0 20.04882 -0 -2.19271 -6.505252 -12.37575 -4.104689 20.27671 -7.95942 -0 12.95668 -0 -5.476408 -19.85468 11.09851 -3.313728 0.5342686 1.676959 2.288378 7.759183 -8.925425 1.154529 22.47523 5.428656 1.095567 -17.41551 7.730684 -1.927314 -12.89993 8.33865 92.55606 20.29397 -21.18293 -0 0 9.294851 -16.87824 5.921596 6.509476 5.617367 -18.65783 -6.546974 -78.37777 22.00256 2.543199 0 0 -25.66354 -0.1918331 8.07695 14.07254
37.79911 102.1164 338.7577 2.761368 -7.663246 10.16606 -1.057397 -25.58942 1.956479 -0 16.77358 -0 -4.546529 -8.050977 -12.88929 -3.45666 22.52776 -7.860854 -0 15.0245 -0 -5.812112 -20.05658 10.9899 -3.143175 0.5101467 1.51704 2.224685 7.333618 -8.700556 1.175388 22.6774 5.14156 0.9877789 -18.08331 7.531002 -2.334866 -12.48314 8.803902 92.63856 20.65703 -21.61822 -0 0 7.424314 -16.17243 5.873973 5.541119 5.810791 -19.14262 -6.543903 -77.4399 21.99102 1.040297 0 0 -26.55274 0.7612276 8.545602 13.08554
38.21557 101.4136 345.5993 2.253625 -7.293577 10.77653 1.030119 -24.14174 3.168353 -0 19.10871 -0 -6.840246 -8.828793 -13.23568 -2.388648 23.78339 -8.241953 -0 19.13807 -0 -6.37422 -18.87169 11.40695 -2.553804 0.09223126 1.076137 2.531104 7.381219 -8.69934 0.9130819 23.01802 4.803999 0.7433732 -18.6699 7.008785 -2.152857 -11.63585 8.967508 93.31273 20.84624 -22.09941 -0 0 5.788562 -15.35883 5.884891 4.605063 5.960502 -18.93054 -6.205387 -77.43487 22.06792 0.7955096 0 0 -27.00738 1.625505 8.953278 12.31497
38.57099 101.2405 353.1789 1.506447 -7.740362 11.22491 3.130411 -22.22482 4.938136 -0 22.79974 -0 -8.375746 -8.685873 -12.7927 -1.214569 24.38824 -8.672459 -0 25.86898 -0 -6.98559 -16.34126 12.56841 -1.691032 -0.5201282 0.7969782 2.836689 7.347909 -8.641024 0.7113097 23.52418 4.567509 0.5406402 -19.25423 6.670787 -2.011169 -11.35606 9.004943 93.68381 21.01898 -21.68051 -0 0 5.332069 -14.68268 5.882605 4.037796 5.873026 -17.84274 -5.85641 -78.45451 22.351 1.873842 0 0 -26.80172 2.230799 9.282375 11.83412
39.12707 101.979 360.9097 0.8288978 -8.722546 10.44725 4.486545 -18.02147 6.859505 -0 25.91647 -0 -9.706049 -8.795651 -11.85939 -0.3729741 22.42514 -8.805284 -0 34.83474 -0 -7.07622 -13.92097 14.75126 -0.9032212 -0.6138614 0.6605294 3.192025 7.888494 -8.730701 0.5493219 23.92719 4.45548 0.3647569 -20.00152 6.534314 -1.904756 -10.81507 8.921976 93.83445 21.13124 -21.27476 -0 0 5.074103 -14.21848 5.815154 3.764224 5.465552 -16.18051 -5.735373 -80.08081 22.79577 3.954236 0 0 -25.75091 2.474416 9.549365 11.69292
39.4657 102.69 368.1274 0.8736766 -10.74754 9.825454 5.612324 -12.65505 7.859799 -0 27.7911 -0 -10.49522 -9.532469 -11.4029 -0.8801309 17.84241 -8.1368 -0 43.92509 -0 -7.250853 -11.10529 16.95355 -0.6163821 -0.140851 1.230074 3.262231 8.238885 -8.33519 0.8084587 24.69284 4.184803 0.4351509 -20.57276 6.574708 -1.87818 -11.12679 9.063871 93.49489 21.33264 -19.94499 -0 0 5.539132 -13.90644 5.730871 3.624039 4.742085 -14.88748 -5.698294 -81.92644 23.43929 6.013029 0 0 -23.97505 2.242574 9.779837 11.87783
39.87355 103.8104 374.5833 0.9795549 -11.53911 8.914616 5.748475 -7.76874 8.188179 -0 26.84715 -0 -10.529 -9.991288 -10.79253 -1.804287 14.2737 -7.542986 -0 52.9701 -0 -7.532792 -8.308112 19.20276 -0.6635207 0.452261 2.145945 3.134163 8.451035 -7.776717 1.11114 25.25434 3.989527 0.5264975 -21.09576 6.767184 -1.945862 -11.38809 9.265242 92.91745 21.52514 -18.40276 -0 0 6.083974 -13.68739 5.633206 3.522012 3.9691 -13.9648 -5.792156 -83.89019 24.15853 8.211328 0 0 -21.534 1.665492 9.977199 12.3602
40.38438 105.4136 380.6914 1.968515 -12.4764 7.928102 5.167679 -1.861306 7.730643 -0 24.44917 -0 -10.46451 -10.68683 -10.35519 -2.84037 7.279106 -6.693555 -0 56.9295 -0 -7.187195 -7.426879 20.98921 -1.351358 1.3379 3.428316 2.746199 8.409519 -6.876205 1.337859 25.91133 3.944063 0.5983262 -21.4339 7.092223 -1.797424 -12.4238 9.603181 91.84138 21.73828 -15.99469 -0 0 7.256769 -13.69199 5.536435 3.689306 3.171148 -13.17357 -5.984905 -86.03176 24.83688 10.68384 0 0 -18.64358 0.8739284 10.1353 13.01901
